<svg xmlns="http://www.w3.org/2000/svg" width="256" height="256"><path fill-opacity=".325" d="M0 127.511v66.497l128.25-.254 128.25-.254.257-66.5.257-66.5-128.507.258L0 61.015v66.496m.472-.011c0 36.85.125 51.78.278 33.177.152-18.602.152-48.752-.001-67C.597 75.43.472 90.65.472 127.5" fill="#1976D2" fill-rule="evenodd"/><path fill-opacity=".262" d="M39 62.395C20.499 67.987 9.797 74.699 5.748 83.251c-7.181 15.167-7.359 23.593-.782 37.179 5.631 11.633 24.404 20.546 43.349 20.582 8.718.017 22.908 4.166 24.885 7.277 2.335 3.675-.544 10.783-5.14 12.686-4.212 1.745-28.455.983-32.486-1.021-2.708-1.345-2.932-1.881-3-7.169-.109-8.455-.519-8.655-16.389-8.035-17.144.67-16.504-.101-15.559 18.744l.69 13.749 6.471 4.751c5.073 3.725 9.004 5.535 18.198 8.379 11.347 3.509 12.228 3.627 27.122 3.612 17.622-.017 24.695-1.307 35.412-6.462 10.664-5.129 15.673-10.059 19.586-19.277 2.783-6.558 3.291-8.974 3.313-15.746.032-9.941-2.892-16.949-10.373-24.859-8.629-9.124-20.787-13.448-43.959-15.633-12.773-1.204-13.67-1.455-17.336-4.842-4.84-4.471-3.145-10.326 3.965-13.702 3.978-1.888 17.561-2.491 23.916-1.062 2.973.669 3.154.986 3.594 6.301.686 8.269 1.41 8.585 17.775 7.751 7.425-.379 13.725-.898 14-1.154.779-.726 1.287-24.019.585-26.817-1.089-4.338-12.526-10.988-24.085-14.006-12.29-3.207-33.216-4.283-40.5-2.082m165.484 4.355c-1.641.963-18.79 17.725-38.107 37.25l-35.124 35.5-2.218 11.887c-1.565 8.383-2.118 14.574-1.877 21 .418 11.134 2.557 15.981 8.407 19.046 7.09 3.716 24.391 3.274 41.935-1.071l6-1.486 34.85-34.688c19.368-19.278 35.472-36.118 36.25-37.906 2.001-4.599 1.729-8.032-1.12-14.153-7.423-15.945-31.95-37.125-42.996-37.128-1.658-.001-4.358.786-6 1.749m3.269 6.082c-1.398.554 2.424 4.86 19.141 21.562 18.119 18.104 20.976 20.592 21.553 18.772.967-3.046-.768-8.319-4.544-13.808-5.541-8.052-19.403-20.952-26.127-24.312-6.357-3.177-7.149-3.352-10.023-2.214m-35.575 35.49-23.307 23.323 3.997 1.197c4.841 1.451 11.573 8.667 12.792 13.712l.84 3.478 23.493-23.517 23.492-23.516-9-9-9-9-23.307 23.323m23 23-23.307 23.323 3.833 1.148c4.967 1.488 11.095 7.812 12.639 13.042l1.217 4.121 23.463-23.479 23.462-23.478-9-9-9-9-23.307 23.323m-53.757 9.097c-2.81 1.223-3.223 2.031-4.712 9.211-2.936 14.152-3.085 13.529 3.567 14.862 9.489 1.9 14.334 6.745 16.227 16.222l1.151 5.766 3.586-.309c1.973-.17 6.888-1.076 10.923-2.013 7.182-1.668 7.365-1.789 8.647-5.681 1.835-5.568.782-9.75-3.376-13.401-2.81-2.467-4.401-3.076-8.035-3.076-2.492 0-5.418.475-6.503 1.055-1.084.581-2.899.761-4.033.402-1.718-.546-1.95-1.178-1.39-3.806.368-1.733.907-5.297 1.196-7.921.499-4.519.317-4.979-3.454-8.75-4.384-4.384-8.046-5.064-13.794-2.561" fill="#1976D2" fill-rule="evenodd"/><path fill-opacity=".614" d="M43.775 62.031c-10.199 1.718-23.951 7.564-31.086 13.216C8.22 78.786 2.558 89.69 1.079 97.604c-1.677 8.981 3.45 24.282 10.256 30.603 7.278 6.76 18.491 10.68 33.665 11.767 13.17.944 24.005 3.94 27.736 7.671 1.991 1.991 2.362 3.114 1.86 5.623-.808 4.043-3.977 7.373-8.409 8.835-4.438 1.465-24.102.636-29.687-1.251-3.893-1.316-4.007-1.486-4.261-6.352-.525-10.041.574-9.349-14.721-9.267-17.66.094-16.869-.758-16.364 17.625.368 13.419.476 14.023 2.864 15.971 6.036 4.926 13.845 8.682 24.489 11.777 10.439 3.036 12.637 3.332 24.725 3.326 15.514-.008 25.215-2.003 36.244-7.453 10.108-4.994 14.782-9.931 18.479-19.518 5.362-13.904 3.588-26.333-5.312-37.214-7.638-9.338-21.274-14.769-42.207-16.812-16.168-1.577-17.107-1.787-20.407-4.564-2.433-2.047-3.029-3.328-3.029-6.508 0-4.614 3.028-8.057 8.745-9.944 4.542-1.499 22.569-.733 24.717 1.049.947.787 1.538 2.927 1.538 5.573 0 7.691-.484 7.459 15.548 7.459 10.385 0 14.548-.344 15.113-1.25.428-.687.78-6.964.783-13.947.005-14.702-.312-15.338-10.281-20.615-7.644-4.046-14.587-5.99-27.599-7.728-11.866-1.584-14.61-1.638-21.789-.429M204.5 66.982c-1.1.47-17.83 16.754-37.177 36.187L132.146 138.5l-2.187 10c-1.419 6.485-2.235 13.867-2.323 21-.168 13.553 1.427 17.649 8.364 21.494 4.041 2.239 5.571 2.483 15 2.392 6.585-.063 14.415-.919 21-2.296l10.5-2.195 34.465-34.197c18.956-18.809 35.265-35.323 36.243-36.698 2.907-4.086 2.35-11.161-1.446-18.36-4.651-8.82-22.163-26.203-30.672-30.445-6.486-3.233-12.369-4.018-16.59-2.213m2.002 6.015c-.859 1.39 39.306 42.229 40.991 41.678 1.954-.639 1.647-6.755-.57-11.334-2.793-5.771-18.3-22.069-25.618-26.927-5.926-3.933-13.416-5.662-14.803-3.417m-34.765 34.766C158.682 120.827 148 131.792 148 132.13c0 .338 1.688.906 3.75 1.261 5.615.969 11.625 6.982 13.859 13.865.879 2.707 1.315 2.336 24.649-21.014l23.754-23.769-9.269-9.231-9.27-9.231-23.736 23.752m22.935 23.065-23.801 23.817 3.95 1.183c5.731 1.717 11.993 8.158 12.793 13.157.353 2.208.925 4.015 1.272 4.015.346 0 11.316-10.694 24.378-23.764l23.748-23.763-9.269-9.231-9.27-9.231-23.801 23.817m-54.4 9.383c-2.513 1.212-2.581 1.386-4.719 11.997-2.312 11.476-2.4 11.201 4.017 12.548 10.337 2.168 15.355 7.475 17.015 17.994.379 2.4 1.22 4.25 1.932 4.25 1.484 0 17.224-2.877 19.649-3.591 2.085-.614 3.834-5.477 3.834-10.658 0-3.146-.681-4.632-3.341-7.292-4.264-4.264-7.536-5.048-14.296-3.426-7.163 1.718-8.205.739-5.83-5.481 1.478-3.869 1.575-5.249.597-8.511-1.715-5.724-6.156-9.057-11.957-8.973-2.57.037-5.676.551-6.901 1.143" fill="#1976D2" fill-rule="evenodd"/></svg>